# xmcd
#
# Track frame offsets:
#	150
#	15628
#	33478
#	53104
#	72950
#	86861
#	108466
#	122329
#	135510
#	154980
#	181287
#	199986
#
# Disc length: 2931 seconds
#
# Revision: 1
# Processed by: cddbd v1.4b41PL3 Copyright (c) Steve Scherf et al.
# Submitted via: CDmax 1.7.6
#
DISCID=a30b710c
DTITLE=James Intveld - Somewhere Down The Road
DYEAR=1900
DGENRE=
TTITLE0=Somewhere Down The Road
TTITLE1=Stringin' Me On
TTITLE2=All The Way From Memphis
TTITLE3=Love Calls
TTITLE4=One Sweet Letter
TTITLE5=Living Without You
TTITLE6=Stop The World
TTITLE7=Modern Don Jaun
TTITLE8=What About You
TTITLE9=If I Should Lose You
TTITLE10=A Sinners Prayer
TTITLE11=Remember Me
EXTD=
EXTT0=
EXTT1=
EXTT2=
EXTT3=
EXTT4=
EXTT5=
EXTT6=
EXTT7=
EXTT8=
EXTT9=
EXTT10=
EXTT11=
PLAYORDER=
